# xmcd
#
# Track frame offsets:
#	150
#	19676
#	52334
#	61462
#	83733
#	104914
#	118366
#	169165
#	189002
#	198853
#	216742
#	231124
#	268412
#
# Disc length: 3855
#
# Revision: 5
# Processed by: cddbd v1.5.1PL0 Copyright (c) Steve Scherf et al.
# Submitted via: ExactAudioCopy v0.90b4
# Normalized: r4:DSETVAR1
#
DISCID=ca0f0d0d
DTITLE=Various Artist - Spiegel Jazz Edition Vol.6 - Rhythm Rhythm
DYEAR=1998
DGENRE=Jazz
TTITLE0=Billy Cobham - Quadrant
TTITLE1=Buck Clayton Jam Session - All the Cats join in
TTITLE2=Dave Brubeck - Unsquare Dance
TTITLE3=Louis Armstrong - Skokiaan
TTITLE4=Oliver Nelson - Hoe-Down
TTITLE5=Sidney Bechet - Big Chief
TTITLE6=Art Blackey - Blues March for Europe No.1
TTITLE7=Gene Krupa - Big Noise from Winnetka
TTITLE8=Cannonball Adderley - African Waltz
TTITLE9=Jo Jones - Caravan
TTITLE10=Lionel Hampton - Sweethearts on Parade
TTITLE11=Dexter Gordon - A Night in Tunisia
TTITLE12=Woody Herman - Hazz Hoot
EXTD=
EXTT0=
EXTT1=
EXTT2=
EXTT3=
EXTT4=
EXTT5=
EXTT6=
EXTT7=
EXTT8=
EXTT9=
EXTT10=
EXTT11=
EXTT12=
PLAYORDER=
